<svg width="24" height="24" viewBox="0 0 24 24" fill="none" xmlns="http://www.w3.org/2000/svg">
<path fill-rule="evenodd" clip-rule="evenodd" d="M12.97 3.97C13.1106 3.82955 13.3012 3.75066 13.5 3.75066C13.6988 3.75066 13.8894 3.82955 14.03 3.97L21.53 11.47C21.6705 11.6106 21.7493 11.8012 21.7493 12C21.7493 12.1988 21.6705 12.3894 21.53 12.53L14.03 20.03C13.9613 20.1037 13.8785 20.1628 13.7865 20.2038C13.6945 20.2448 13.5952 20.2668 13.4945 20.2686C13.3938 20.2704 13.2938 20.2518 13.2004 20.2141C13.107 20.1764 13.0222 20.1203 12.951 20.049C12.8797 19.9778 12.8236 19.893 12.7859 19.7996C12.7482 19.7062 12.7296 19.6062 12.7314 19.5055C12.7332 19.4048 12.7552 19.3055 12.7962 19.2135C12.8372 19.1215 12.8963 19.0387 12.97 18.97L19.19 12.75H3C2.80109 12.75 2.61032 12.671 2.46967 12.5303C2.32902 12.3897 2.25 12.1989 2.25 12C2.25 11.8011 2.32902 11.6103 2.46967 11.4697C2.61032 11.329 2.80109 11.25 3 11.25H19.19L12.97 5.03C12.8295 4.88937 12.7507 4.69875 12.7507 4.5C12.7507 4.30125 12.8295 4.11063 12.97 3.97Z" fill="black"/>
</svg>
