<svg width="24" height="24" viewBox="0 0 24 24" fill="none" xmlns="http://www.w3.org/2000/svg">
<path fill-rule="evenodd" clip-rule="evenodd" d="M11.03 3.97C11.1704 4.11063 11.2493 4.30125 11.2493 4.5C11.2493 4.69875 11.1704 4.88937 11.03 5.03L4.80995 11.25H21C21.1989 11.25 21.3896 11.329 21.5303 11.4697C21.6709 11.6103 21.75 11.8011 21.75 12C21.75 12.1989 21.6709 12.3897 21.5303 12.5303C21.3896 12.671 21.1989 12.75 21 12.75H4.80995L11.03 18.97C11.1036 19.0387 11.1627 19.1215 11.2037 19.2135C11.2447 19.3055 11.2668 19.4048 11.2685 19.5055C11.2703 19.6062 11.2518 19.7062 11.2141 19.7996C11.1764 19.893 11.1202 19.9778 11.049 20.049C10.9778 20.1203 10.8929 20.1764 10.7995 20.2141C10.7062 20.2518 10.6061 20.2704 10.5054 20.2686C10.4047 20.2668 10.3054 20.2448 10.2134 20.2038C10.1214 20.1628 10.0386 20.1037 9.96995 20.03L2.46995 12.53C2.3295 12.3894 2.25061 12.1988 2.25061 12C2.25061 11.8012 2.3295 11.6106 2.46995 11.47L9.96995 3.97C10.1106 3.82955 10.3012 3.75066 10.5 3.75066C10.6987 3.75066 10.8893 3.82955 11.03 3.97Z" fill="black"/>
</svg>
